<?xml version="1.0" encoding="UTF-8" standalone="no"?>
<!DOCTYPE svg PUBLIC "-//W3C//DTD SVG 1.1//EN" "http://www.w3.org/Graphics/SVG/1.1/DTD/svg11.dtd">
<!-- Created with Vectornator (http://vectornator.io/) -->
<svg height="100%" stroke-miterlimit="10" style="fill-rule:nonzero;clip-rule:evenodd;stroke-linecap:round;stroke-linejoin:round;" version="1.1" viewBox="0 0 1024 1024" width="100%" xml:space="preserve" xmlns="http://www.w3.org/2000/svg" xmlns:vectornator="http://vectornator.io" xmlns:xlink="http://www.w3.org/1999/xlink">
<defs>
<linearGradient gradientTransform="matrix(1.1717e-14 1024 -1024 1.25404e-13 512 -1.13687e-13)" gradientUnits="userSpaceOnUse" id="LinearGradient" x1="0" x2="1" y1="0" y2="0">
<stop offset="0" stop-color="#24adf4"/>
<stop offset="1" stop-color="#017ee4"/>
</linearGradient>
<filter color-interpolation-filters="sRGB" filterUnits="userSpaceOnUse" height="681.594" id="Filter" width="667.811" x="167.289" y="333.469">
<feDropShadow dx="-0.00018366" dy="50" flood-color="#000000" flood-opacity="0.5" in="SourceGraphic" result="Shadow" stdDeviation="40"/>
</filter>
</defs>
<path d="M0 0L1024 0L1024 1024L0 1024L0 0Z" fill="#ffffff" fill-rule="nonzero" opacity="0" stroke="none" vectornator:artboardBackground="true"/>
<clipPath id="ArtboardFrame">
<rect height="1024" width="1024" x="0" y="0"/>
</clipPath>
<!-- <g clip-path="url(#ArtboardFrame)" id="Background" vectornator:layerName="Background">
<path d="M1024 1024L1.7053e-13 1024L0-5.68434e-14L1024-2.27374e-13L1024 1024Z" fill="#000000" fill-rule="nonzero" opacity="0" stroke="none" vectornator:layerName="长方形 1"/>
</g> -->
<g id="Body" vectornator:layerName="Body">
<path d="M338.188 165.969L339.5 328.344C336.453 341.469 334.656 355.118 334.656 369.219C334.656 465.011 409.173 542.656 501.094 542.656C593.015 542.656 667.531 465.011 667.531 369.219C667.531 353.969 665.453 339.247 661.906 325.156L664.625 167.25L567.094 210C546.851 200.874 524.552 195.75 501.094 195.75C476.459 195.75 453.161 201.491 432.125 211.5L338.188 165.969Z" fill="#000000" fill-rule="nonzero" opacity="1" stroke="#ffffff" stroke-width="8" vectornator:layerName="曲线 1"/>
<path d="M826.031 432.375C811.396 432.261 799.458 444.021 799.344 458.656C798.52 564.629 766.783 643.707 710.656 695.688C661.632 741.09 594.558 764.594 522 764.594C507.364 764.594 495.5 776.458 495.5 791.094C495.5 805.729 507.365 817.594 522 817.594C607.296 817.594 687.288 789.545 746.656 734.562C814.025 672.171 851.411 579.055 852.344 459.062C852.458 444.427 840.666 432.489 826.031 432.375Z" fill="#000000" fill-rule="nonzero" opacity="1" stroke="#ffffff" stroke-width="8" vectornator:layerName="曲线 2"/>
</g>
<g id="Face" vectornator:layerName="Face">
<path d="M386.973 316.472C386.973 292.763 406.193 273.543 429.902 273.543C453.611 273.543 472.831 292.763 472.831 316.472C472.831 340.18 453.611 359.4 429.902 359.4C406.193 359.4 386.973 340.18 386.973 316.472Z" fill="#ffffff" fill-rule="nonzero" opacity="1" stroke="none" vectornator:layerName="椭圆 1"/>
<path d="M427.969 288.75C413.058 289.257 401.094 301.435 401.094 316.469C401.094 331.825 413.55 344.281 428.906 344.281C444.262 344.281 456.719 331.825 456.719 316.469C456.719 310.376 454.699 304.8 451.375 300.219C449.444 305.116 444.677 308.594 439.094 308.594C431.801 308.594 425.906 302.668 425.906 295.375C425.906 292.896 426.781 290.732 427.969 288.75Z" fill="#000000" fill-rule="nonzero" opacity="1" stroke="#ffffff" stroke-width="6" vectornator:layerName="曲线 1"/>
<path d="M525 316.472C525 292.763 544.219 273.543 567.928 273.543C591.637 273.543 610.857 292.763 610.857 316.472C610.857 340.18 591.637 359.4 567.928 359.4C544.219 359.4 525 340.18 525 316.472Z" fill="#ffffff" fill-rule="nonzero" opacity="1" stroke="none" vectornator:layerName="椭圆 2"/>
<path d="M565.995 288.75C551.084 289.257 539.12 301.435 539.12 316.469C539.12 331.825 551.577 344.281 566.933 344.281C582.289 344.281 594.745 331.825 594.745 316.469C594.745 310.376 592.725 304.8 589.401 300.219C587.47 305.116 582.704 308.594 577.12 308.594C569.827 308.594 563.933 302.668 563.933 295.375C563.933 292.896 564.807 290.732 565.995 288.75Z" fill="#000000" fill-rule="nonzero" opacity="1" stroke="#ffffff" stroke-width="6" vectornator:layerName="曲线 2"/>
<path d="M497.844 352.562C488.487 352.563 480.906 356.479 480.906 361.312C480.906 362.959 481.782 364.497 483.312 365.812C484.195 366.571 485.354 367.226 486.625 367.812L498.25 374L509.219 367.719C509.723 367.48 510.117 367.206 510.562 366.938C510.597 366.917 510.622 366.896 510.656 366.875L510.688 366.875C513.155 365.355 514.781 363.451 514.781 361.312C514.781 356.479 507.201 352.562 497.844 352.562Z" fill="#ffffff" fill-rule="nonzero" opacity="1" stroke="none" vectornator:layerName="曲线 3"/>
<g opacity="1" vectornator:layerName="曲线 4">
<path d="M691.344 347.562C685.634 347.489 679.895 347.691 674.188 347.844C668.629 347.992 663.079 348.125 657.531 348.531C649.733 349.102 641.909 350.166 634.25 351.75C630.911 352.441 627.614 353.393 624.344 354.344C619.583 355.728 614.873 357.269 610.25 359.062C609.814 359.205 609.576 359.689 609.719 360.125C609.862 360.561 610.314 360.799 610.75 360.656C618.4 358.592 626.194 357.321 634 356.031C637.644 355.429 641.264 354.712 644.906 354.094C655.086 352.367 665.302 350.511 675.594 349.594C681.272 349.088 686.962 349.003 692.656 348.906C695.73 348.854 698.8 348.776 701.875 348.844C707.932 348.978 713.957 349.484 719.969 350.219C713.537 349.214 707.087 348.514 700.594 348.062C697.518 347.849 694.428 347.602 691.344 347.562Z" fill="#ffffff" stroke="none"/>
</g>
<g opacity="1" vectornator:layerName="曲线 5">
<path d="M645.062 372.188C642.671 372.116 640.262 372.267 637.875 372.406C634.132 372.624 630.395 372.976 626.688 373.531C626.23 373.567 625.902 373.98 625.938 374.438C625.973 374.895 626.355 375.223 626.812 375.188C630.489 375.171 634.15 375.34 637.812 375.656C640.149 375.858 642.475 376.153 644.812 376.344C649.158 376.698 653.53 376.98 657.875 377.344C662.97 377.771 668.088 378.054 673.156 378.75C677.977 379.412 682.633 380.567 687.344 381.75C693.862 383.386 700.347 385.336 706.031 389.031C702.331 386.381 698.19 384.475 693.969 382.812C691.908 382.001 689.827 381.18 687.719 380.5C684.276 379.389 680.727 378.592 677.219 377.719C666.643 375.086 656.015 372.515 645.062 372.188Z" fill="#ffffff" stroke="none"/>
</g>
<g opacity="1" vectornator:layerName="曲线 6">
<path d="M303.219 347.75C299.329 347.812 295.412 348.073 291.531 348.344C286.191 348.717 280.788 349.24 275.594 350.594C284.189 348.656 293.245 348.734 302 349.031C307.599 349.222 313.161 349.272 318.75 349.719C327.365 350.407 335.922 351.757 344.469 353C350.428 353.867 356.357 354.899 362.312 355.781C370.038 356.925 377.836 358.042 385.25 360.594C385.675 360.766 386.14 360.55 386.312 360.125C386.485 359.7 386.3 359.235 385.875 359.062C381.479 357.007 376.843 355.474 372.188 354.125C368.774 353.136 365.334 352.177 361.844 351.5C347.229 348.664 332.336 348.267 317.5 347.969C312.739 347.873 307.982 347.674 303.219 347.75Z" fill="#ffffff" stroke="none"/>
</g>
<g opacity="1" vectornator:layerName="曲线 7">
<path d="M351.969 372C341.881 372.326 332.078 374.977 322.375 377.5C318.345 378.548 314.257 379.412 310.281 380.656C304.214 382.556 298.161 384.748 292.344 387.312C298.304 385.014 304.372 383.327 310.594 381.906C315.233 380.847 319.814 379.664 324.531 378.969C330.984 378.018 337.512 377.524 344 376.875C346.744 376.6 349.509 376.424 352.25 376.125C357.81 375.518 363.298 374.8 368.906 374.969C369.362 375.017 369.764 374.706 369.812 374.25C369.861 373.794 369.55 373.361 369.094 373.312C363.499 372.292 357.657 371.816 351.969 372Z" fill="#ffffff" stroke="none"/>
</g>
</g>
<g id="Egg" vectornator:layerName="Egg">
<path d="M632.25 383.469L616.25 399.906L598.031 422.594L536.375 449.281L488.031 389.094L465.031 429.969L391.75 416.031L331.969 399.312C292.478 449.447 268.071 516.355 267.312 588C265.432 765.707 377.226 864.778 501.156 865.062C625.086 865.347 738.297 769.859 735.031 588C733.822 520.661 713.382 458.926 679.875 410.906L632.25 383.469Z" fill="#ffffff" fill-rule="nonzero" filter="url(#Filter)" stroke="none" vectornator:layerName="曲线 1" vectornator:shadowAngle="1.5708" vectornator:shadowColor="#000000" vectornator:shadowOffset="50" vectornator:shadowOpacity="0.5" vectornator:shadowRadius="80"/>
</g>
</svg>
